# xmcd CD database file
#
# Track frame offsets:
#	150
#	12334
#	29484
#	46076
#	63849
#	81391
#	97595
#	115253
#	131453
#	144475
#	164153
#
# Disc length: 2437 seconds
#
# Revision: 0
# Processed by: cddbd v1.5.1PL2 Copyright (c) Steve Scherf et al.
# Submitted via: CDex 1.40Beta9
#
DISCID=8b09830b
DTITLE=Scott Dawson - Dedicated Man
DYEAR=2006
DGENRE=Country
TTITLE0=Marry Me or Bury Me
TTITLE1=Let My Memory Burn
TTITLE2=Lady Angel
TTITLE3=Best Things In Life
TTITLE4=Getting Over You For Good
TTITLE5=The Real Deal
TTITLE6=You Keep The Sunshine
TTITLE7=A Picture is Worth a 1000 Tears
TTITLE8=Gone
TTITLE9=To Be Back Home Again
TTITLE10=My Lover, My Friend, My Wife
EXTD=YEAR: 2006 ID3G: 2
EXTT0=
EXTT1=
EXTT2=
EXTT3=
EXTT4=
EXTT5=
EXTT6=
EXTT7=
EXTT8=
EXTT9=
EXTT10=
PLAYORDER=
